<mxfile host="app.diagrams.net" modified="2023-01-14T06:54:17.152Z" agent="5.0 (X11; Linux x86_64) AppleWebKit/537.36 (KHTML, like Gecko) Chrome/108.0.0.0 Safari/537.36" etag="_LTb7KpzculOAD__q3if" version="20.8.5" type="github">
  <diagram id="Hkj4WFlvK4-08UBy-HWi" name="Page-1">
    <mxGraphModel dx="1218" dy="785" grid="1" gridSize="10" guides="1" tooltips="1" connect="1" arrows="1" fold="1" page="1" pageScale="1" pageWidth="850" pageHeight="1100" math="0" shadow="0">
      <root>
        <mxCell id="0" />
        <mxCell id="1" parent="0" />
        <mxCell id="1bVyddex_vhO6T4n7lc5-1" value="Floor: 2" style="text;strokeColor=none;fillColor=none;html=1;fontSize=24;fontStyle=1;verticalAlign=middle;align=center;" parent="1" vertex="1">
          <mxGeometry x="40" y="40" width="100" height="40" as="geometry" />
        </mxCell>
        <mxCell id="1bVyddex_vhO6T4n7lc5-2" value="Room: 5" style="text;strokeColor=none;fillColor=none;html=1;fontSize=24;fontStyle=1;verticalAlign=middle;align=center;" parent="1" vertex="1">
          <mxGeometry x="160" y="40" width="100" height="40" as="geometry" />
        </mxCell>
        <mxCell id="1bVyddex_vhO6T4n7lc5-48" value="Floor: 2" style="text;strokeColor=none;fillColor=none;html=1;fontSize=24;fontStyle=1;verticalAlign=middle;align=center;" parent="1" vertex="1">
          <mxGeometry x="40" y="520" width="100" height="40" as="geometry" />
        </mxCell>
        <mxCell id="1bVyddex_vhO6T4n7lc5-49" value="Room: 6" style="text;strokeColor=none;fillColor=none;html=1;fontSize=24;fontStyle=1;verticalAlign=middle;align=center;" parent="1" vertex="1">
          <mxGeometry x="160" y="520" width="100" height="40" as="geometry" />
        </mxCell>
        <mxCell id="aGKy50mMF9wv1vPUwQMt-1" value="" style="verticalLabelPosition=bottom;html=1;verticalAlign=top;align=center;shape=mxgraph.floorplan.plant;" vertex="1" parent="1">
          <mxGeometry x="90" y="200" width="47" height="51" as="geometry" />
        </mxCell>
        <mxCell id="aGKy50mMF9wv1vPUwQMt-2" value="" style="verticalLabelPosition=bottom;html=1;verticalAlign=top;align=center;shape=mxgraph.floorplan.wall;fillColor=strokeColor;" vertex="1" parent="1">
          <mxGeometry x="420" y="460" width="40" height="10" as="geometry" />
        </mxCell>
        <mxCell id="aGKy50mMF9wv1vPUwQMt-3" value="" style="verticalLabelPosition=bottom;html=1;verticalAlign=top;align=center;shape=mxgraph.floorplan.plant;" vertex="1" parent="1">
          <mxGeometry x="127" y="302" width="47" height="51" as="geometry" />
        </mxCell>
        <mxCell id="aGKy50mMF9wv1vPUwQMt-4" value="" style="verticalLabelPosition=bottom;html=1;verticalAlign=top;align=center;shape=mxgraph.floorplan.plant;" vertex="1" parent="1">
          <mxGeometry x="127" y="353" width="47" height="51" as="geometry" />
        </mxCell>
        <mxCell id="aGKy50mMF9wv1vPUwQMt-5" value="" style="verticalLabelPosition=bottom;html=1;verticalAlign=top;align=center;shape=mxgraph.floorplan.wall;fillColor=strokeColor;" vertex="1" parent="1">
          <mxGeometry x="130" y="460" width="140" height="10" as="geometry" />
        </mxCell>
        <mxCell id="aGKy50mMF9wv1vPUwQMt-6" value="" style="verticalLabelPosition=bottom;html=1;verticalAlign=top;align=center;shape=mxgraph.floorplan.plant;" vertex="1" parent="1">
          <mxGeometry x="129" y="404" width="47" height="51" as="geometry" />
        </mxCell>
        <mxCell id="aGKy50mMF9wv1vPUwQMt-7" value="" style="rounded=0;whiteSpace=wrap;html=1;fillColor=#0F0F0F;" vertex="1" parent="1">
          <mxGeometry x="147" y="200" width="63" height="50" as="geometry" />
        </mxCell>
        <mxCell id="aGKy50mMF9wv1vPUwQMt-8" value="Sea view" style="text;strokeColor=none;fillColor=none;html=1;fontSize=24;fontStyle=0;verticalAlign=middle;align=center;" vertex="1" parent="1">
          <mxGeometry x="300" y="60" width="100" height="40" as="geometry" />
        </mxCell>
        <mxCell id="aGKy50mMF9wv1vPUwQMt-9" value="" style="endArrow=classic;html=1;rounded=0;dashed=1;dashPattern=8 8;" edge="1" parent="1">
          <mxGeometry width="50" height="50" relative="1" as="geometry">
            <mxPoint x="350" y="120" as="sourcePoint" />
            <mxPoint x="350" y="230" as="targetPoint" />
          </mxGeometry>
        </mxCell>
        <mxCell id="aGKy50mMF9wv1vPUwQMt-10" value="entrance" style="edgeLabel;html=1;align=center;verticalAlign=middle;resizable=0;points=[];fontSize=14;" vertex="1" connectable="0" parent="aGKy50mMF9wv1vPUwQMt-9">
          <mxGeometry x="-0.5444" y="-3" relative="1" as="geometry">
            <mxPoint as="offset" />
          </mxGeometry>
        </mxCell>
        <mxCell id="aGKy50mMF9wv1vPUwQMt-11" value="" style="shape=dimension;direction=south;whiteSpace=wrap;html=1;align=left;points=[];verticalAlign=middle;labelBackgroundColor=#ffffff;fillColor=#0F0F0F;" vertex="1" parent="1">
          <mxGeometry x="70" y="200" width="90" height="260" as="geometry" />
        </mxCell>
        <mxCell id="aGKy50mMF9wv1vPUwQMt-12" value="" style="shape=dimension;direction=west;whiteSpace=wrap;html=1;align=center;points=[];verticalAlign=top;spacingTop=-8;labelBackgroundColor=#ffffff;fillColor=#0F0F0F;" vertex="1" parent="1">
          <mxGeometry x="147" y="170" width="63" height="30" as="geometry" />
        </mxCell>
        <mxCell id="aGKy50mMF9wv1vPUwQMt-13" value="" style="endArrow=none;dashed=1;html=1;rounded=0;dashPattern=8 8;exitX=1;exitY=0;exitDx=0;exitDy=0;" edge="1" parent="1" source="aGKy50mMF9wv1vPUwQMt-7">
          <mxGeometry width="50" height="50" relative="1" as="geometry">
            <mxPoint x="480" y="320" as="sourcePoint" />
            <mxPoint x="450" y="200" as="targetPoint" />
          </mxGeometry>
        </mxCell>
        <mxCell id="aGKy50mMF9wv1vPUwQMt-14" value="" style="curved=1;endArrow=none;html=1;rounded=0;dashed=1;dashPattern=8 8;strokeColor=default;endFill=0;" edge="1" parent="1">
          <mxGeometry width="50" height="50" relative="1" as="geometry">
            <mxPoint x="460" y="490" as="sourcePoint" />
            <mxPoint x="480" y="120" as="targetPoint" />
            <Array as="points">
              <mxPoint x="480" y="380" />
              <mxPoint x="410" y="340" />
              <mxPoint x="430" y="240" />
            </Array>
          </mxGeometry>
        </mxCell>
        <mxCell id="aGKy50mMF9wv1vPUwQMt-15" value="" style="shape=dimension;whiteSpace=wrap;html=1;align=center;points=[];verticalAlign=bottom;spacingBottom=-5;labelBackgroundColor=#ffffff;fontSize=14;fillColor=#0F0F0F;" vertex="1" parent="1">
          <mxGeometry x="150" y="470" width="120" height="40" as="geometry" />
        </mxCell>
        <mxCell id="aGKy50mMF9wv1vPUwQMt-16" value="2190" style="text;html=1;strokeColor=none;fillColor=none;align=center;verticalAlign=middle;whiteSpace=wrap;rounded=0;rotation=270;" vertex="1" parent="1">
          <mxGeometry x="20" y="315" width="60" height="30" as="geometry" />
        </mxCell>
        <mxCell id="aGKy50mMF9wv1vPUwQMt-17" value="" style="endArrow=none;dashed=1;html=1;rounded=0;dashPattern=8 8;entryX=0;entryY=1;entryDx=0;entryDy=0;exitX=1;exitY=0.056;exitDx=0;exitDy=0;exitPerimeter=0;" edge="1" parent="1">
          <mxGeometry width="50" height="50" relative="1" as="geometry">
            <mxPoint x="176.92000000000007" y="460" as="sourcePoint" />
            <mxPoint x="174" y="250" as="targetPoint" />
          </mxGeometry>
        </mxCell>
        <mxCell id="aGKy50mMF9wv1vPUwQMt-18" value="" style="verticalLabelPosition=bottom;html=1;verticalAlign=top;align=center;shape=mxgraph.floorplan.plant;" vertex="1" parent="1">
          <mxGeometry x="123" y="251" width="47" height="51" as="geometry" />
        </mxCell>
        <mxCell id="aGKy50mMF9wv1vPUwQMt-19" value="310" style="text;html=1;strokeColor=none;fillColor=none;align=center;verticalAlign=middle;whiteSpace=wrap;rounded=0;" vertex="1" parent="1">
          <mxGeometry x="150" y="140" width="60" height="30" as="geometry" />
        </mxCell>
        <mxCell id="aGKy50mMF9wv1vPUwQMt-20" value="1130" style="text;html=1;strokeColor=none;fillColor=none;align=center;verticalAlign=middle;whiteSpace=wrap;rounded=0;" vertex="1" parent="1">
          <mxGeometry x="174" y="475" width="60" height="30" as="geometry" />
        </mxCell>
        <mxCell id="aGKy50mMF9wv1vPUwQMt-22" value="" style="endArrow=none;dashed=1;html=1;rounded=0;dashPattern=8 8;entryX=0;entryY=1;entryDx=0;entryDy=0;exitX=1;exitY=0.056;exitDx=0;exitDy=0;exitPerimeter=0;" edge="1" parent="1">
          <mxGeometry width="50" height="50" relative="1" as="geometry">
            <mxPoint x="149.92000000000007" y="461" as="sourcePoint" />
            <mxPoint x="147" y="251" as="targetPoint" />
          </mxGeometry>
        </mxCell>
        <mxCell id="aGKy50mMF9wv1vPUwQMt-23" value="" style="shape=dimension;direction=north;whiteSpace=wrap;html=1;align=right;points=[];verticalAlign=middle;labelBackgroundColor=#ffffff" vertex="1" parent="1">
          <mxGeometry x="210" y="200" width="40" height="50" as="geometry" />
        </mxCell>
        <mxCell id="aGKy50mMF9wv1vPUwQMt-24" value="300" style="text;html=1;strokeColor=none;fillColor=none;align=center;verticalAlign=middle;whiteSpace=wrap;rounded=0;rotation=270;" vertex="1" parent="1">
          <mxGeometry x="207" y="210.5" width="60" height="30" as="geometry" />
        </mxCell>
        <mxCell id="aGKy50mMF9wv1vPUwQMt-25" value="150" style="shape=dimension;whiteSpace=wrap;html=1;align=center;points=[];verticalAlign=bottom;spacingBottom=-5;labelBackgroundColor=#ffffff" vertex="1" parent="1">
          <mxGeometry x="174" y="250" width="36" height="40" as="geometry" />
        </mxCell>
        <mxCell id="aGKy50mMF9wv1vPUwQMt-50" value="" style="verticalLabelPosition=bottom;html=1;verticalAlign=top;align=center;shape=mxgraph.floorplan.plant;" vertex="1" parent="1">
          <mxGeometry x="90" y="710" width="47" height="51" as="geometry" />
        </mxCell>
        <mxCell id="aGKy50mMF9wv1vPUwQMt-51" value="" style="verticalLabelPosition=bottom;html=1;verticalAlign=top;align=center;shape=mxgraph.floorplan.wall;fillColor=strokeColor;" vertex="1" parent="1">
          <mxGeometry x="420" y="970" width="40" height="10" as="geometry" />
        </mxCell>
        <mxCell id="aGKy50mMF9wv1vPUwQMt-52" value="" style="verticalLabelPosition=bottom;html=1;verticalAlign=top;align=center;shape=mxgraph.floorplan.plant;" vertex="1" parent="1">
          <mxGeometry x="127" y="812" width="47" height="51" as="geometry" />
        </mxCell>
        <mxCell id="aGKy50mMF9wv1vPUwQMt-53" value="" style="verticalLabelPosition=bottom;html=1;verticalAlign=top;align=center;shape=mxgraph.floorplan.plant;" vertex="1" parent="1">
          <mxGeometry x="127" y="863" width="47" height="51" as="geometry" />
        </mxCell>
        <mxCell id="aGKy50mMF9wv1vPUwQMt-54" value="" style="verticalLabelPosition=bottom;html=1;verticalAlign=top;align=center;shape=mxgraph.floorplan.wall;fillColor=strokeColor;" vertex="1" parent="1">
          <mxGeometry x="130" y="970" width="140" height="10" as="geometry" />
        </mxCell>
        <mxCell id="aGKy50mMF9wv1vPUwQMt-55" value="" style="verticalLabelPosition=bottom;html=1;verticalAlign=top;align=center;shape=mxgraph.floorplan.plant;" vertex="1" parent="1">
          <mxGeometry x="129" y="914" width="47" height="51" as="geometry" />
        </mxCell>
        <mxCell id="aGKy50mMF9wv1vPUwQMt-56" value="" style="rounded=0;whiteSpace=wrap;html=1;fillColor=#0F0F0F;" vertex="1" parent="1">
          <mxGeometry x="147" y="710" width="63" height="50" as="geometry" />
        </mxCell>
        <mxCell id="aGKy50mMF9wv1vPUwQMt-57" value="Sea view" style="text;strokeColor=none;fillColor=none;html=1;fontSize=24;fontStyle=0;verticalAlign=middle;align=center;" vertex="1" parent="1">
          <mxGeometry x="300" y="570" width="100" height="40" as="geometry" />
        </mxCell>
        <mxCell id="aGKy50mMF9wv1vPUwQMt-58" value="" style="endArrow=classic;html=1;rounded=0;dashed=1;dashPattern=8 8;" edge="1" parent="1">
          <mxGeometry width="50" height="50" relative="1" as="geometry">
            <mxPoint x="350" y="630" as="sourcePoint" />
            <mxPoint x="350" y="740" as="targetPoint" />
          </mxGeometry>
        </mxCell>
        <mxCell id="aGKy50mMF9wv1vPUwQMt-59" value="entrance" style="edgeLabel;html=1;align=center;verticalAlign=middle;resizable=0;points=[];fontSize=14;" vertex="1" connectable="0" parent="aGKy50mMF9wv1vPUwQMt-58">
          <mxGeometry x="-0.5444" y="-3" relative="1" as="geometry">
            <mxPoint as="offset" />
          </mxGeometry>
        </mxCell>
        <mxCell id="aGKy50mMF9wv1vPUwQMt-60" value="" style="shape=dimension;direction=south;whiteSpace=wrap;html=1;align=left;points=[];verticalAlign=middle;labelBackgroundColor=#ffffff;fillColor=#0F0F0F;" vertex="1" parent="1">
          <mxGeometry x="70" y="710" width="90" height="260" as="geometry" />
        </mxCell>
        <mxCell id="aGKy50mMF9wv1vPUwQMt-61" value="" style="shape=dimension;direction=west;whiteSpace=wrap;html=1;align=center;points=[];verticalAlign=top;spacingTop=-8;labelBackgroundColor=#ffffff;fillColor=#0F0F0F;" vertex="1" parent="1">
          <mxGeometry x="147" y="680" width="63" height="30" as="geometry" />
        </mxCell>
        <mxCell id="aGKy50mMF9wv1vPUwQMt-62" value="" style="endArrow=none;dashed=1;html=1;rounded=0;dashPattern=8 8;exitX=1;exitY=0;exitDx=0;exitDy=0;" edge="1" parent="1" source="aGKy50mMF9wv1vPUwQMt-56">
          <mxGeometry width="50" height="50" relative="1" as="geometry">
            <mxPoint x="480" y="830" as="sourcePoint" />
            <mxPoint x="450" y="710" as="targetPoint" />
          </mxGeometry>
        </mxCell>
        <mxCell id="aGKy50mMF9wv1vPUwQMt-63" value="" style="curved=1;endArrow=none;html=1;rounded=0;dashed=1;dashPattern=8 8;strokeColor=default;endFill=0;" edge="1" parent="1">
          <mxGeometry width="50" height="50" relative="1" as="geometry">
            <mxPoint x="460" y="1000" as="sourcePoint" />
            <mxPoint x="480" y="630" as="targetPoint" />
            <Array as="points">
              <mxPoint x="480" y="890" />
              <mxPoint x="410" y="850" />
              <mxPoint x="430" y="750" />
            </Array>
          </mxGeometry>
        </mxCell>
        <mxCell id="aGKy50mMF9wv1vPUwQMt-64" value="" style="shape=dimension;whiteSpace=wrap;html=1;align=center;points=[];verticalAlign=bottom;spacingBottom=-5;labelBackgroundColor=#ffffff;fontSize=14;fillColor=#0F0F0F;" vertex="1" parent="1">
          <mxGeometry x="150" y="980" width="120" height="40" as="geometry" />
        </mxCell>
        <mxCell id="aGKy50mMF9wv1vPUwQMt-65" value="2420" style="text;html=1;strokeColor=none;fillColor=none;align=center;verticalAlign=middle;whiteSpace=wrap;rounded=0;rotation=270;" vertex="1" parent="1">
          <mxGeometry x="20" y="825" width="60" height="30" as="geometry" />
        </mxCell>
        <mxCell id="aGKy50mMF9wv1vPUwQMt-66" value="" style="endArrow=none;dashed=1;html=1;rounded=0;dashPattern=8 8;entryX=0;entryY=1;entryDx=0;entryDy=0;exitX=1;exitY=0.056;exitDx=0;exitDy=0;exitPerimeter=0;" edge="1" parent="1">
          <mxGeometry width="50" height="50" relative="1" as="geometry">
            <mxPoint x="176.92000000000007" y="970" as="sourcePoint" />
            <mxPoint x="174" y="760" as="targetPoint" />
          </mxGeometry>
        </mxCell>
        <mxCell id="aGKy50mMF9wv1vPUwQMt-67" value="" style="verticalLabelPosition=bottom;html=1;verticalAlign=top;align=center;shape=mxgraph.floorplan.plant;" vertex="1" parent="1">
          <mxGeometry x="123" y="761" width="47" height="51" as="geometry" />
        </mxCell>
        <mxCell id="aGKy50mMF9wv1vPUwQMt-68" value="300" style="text;html=1;strokeColor=none;fillColor=none;align=center;verticalAlign=middle;whiteSpace=wrap;rounded=0;" vertex="1" parent="1">
          <mxGeometry x="150" y="650" width="60" height="30" as="geometry" />
        </mxCell>
        <mxCell id="aGKy50mMF9wv1vPUwQMt-69" value="990" style="text;html=1;strokeColor=none;fillColor=none;align=center;verticalAlign=middle;whiteSpace=wrap;rounded=0;" vertex="1" parent="1">
          <mxGeometry x="174" y="985" width="60" height="30" as="geometry" />
        </mxCell>
        <mxCell id="aGKy50mMF9wv1vPUwQMt-70" value="200" style="shape=dimension;whiteSpace=wrap;html=1;align=center;points=[];verticalAlign=bottom;spacingBottom=-5;labelBackgroundColor=#ffffff" vertex="1" parent="1">
          <mxGeometry x="174" y="761" width="36" height="40" as="geometry" />
        </mxCell>
        <mxCell id="aGKy50mMF9wv1vPUwQMt-71" value="" style="endArrow=none;dashed=1;html=1;rounded=0;dashPattern=8 8;entryX=0;entryY=1;entryDx=0;entryDy=0;exitX=1;exitY=0.056;exitDx=0;exitDy=0;exitPerimeter=0;" edge="1" parent="1">
          <mxGeometry width="50" height="50" relative="1" as="geometry">
            <mxPoint x="149.92000000000007" y="971" as="sourcePoint" />
            <mxPoint x="147" y="761" as="targetPoint" />
          </mxGeometry>
        </mxCell>
        <mxCell id="aGKy50mMF9wv1vPUwQMt-72" value="" style="shape=dimension;direction=north;whiteSpace=wrap;html=1;align=right;points=[];verticalAlign=middle;labelBackgroundColor=#ffffff" vertex="1" parent="1">
          <mxGeometry x="210" y="710" width="40" height="50" as="geometry" />
        </mxCell>
        <mxCell id="aGKy50mMF9wv1vPUwQMt-73" value="280" style="text;html=1;strokeColor=none;fillColor=none;align=center;verticalAlign=middle;whiteSpace=wrap;rounded=0;rotation=270;" vertex="1" parent="1">
          <mxGeometry x="207" y="720.5" width="60" height="30" as="geometry" />
        </mxCell>
      </root>
    </mxGraphModel>
  </diagram>
</mxfile>
